<mxfile host="app.diagrams.net" agent="Mozilla/5.0 (Macintosh; Intel Mac OS X 10_15_7) AppleWebKit/537.36 (KHTML, like Gecko) Chrome/133.0.0.0 Safari/537.36" version="26.0.10">
  <diagram name="Page-1" id="M9aPWiuMPCjw7mzSLI-G">
    <mxGraphModel dx="1080" dy="684" grid="1" gridSize="10" guides="1" tooltips="1" connect="1" arrows="1" fold="1" page="1" pageScale="1" pageWidth="827" pageHeight="1169" math="0" shadow="0">
      <root>
        <mxCell id="0" />
        <mxCell id="1" parent="0" />
        <mxCell id="EPtruhl0A_hH3fAsd42Y-12" value="" style="group" vertex="1" connectable="0" parent="1">
          <mxGeometry x="260" y="90" width="190" height="480" as="geometry" />
        </mxCell>
        <mxCell id="EPtruhl0A_hH3fAsd42Y-3" value="" style="rounded=1;whiteSpace=wrap;html=1;labelPosition=center;verticalLabelPosition=middle;align=left;verticalAlign=middle;textDirection=ltr;spacing=1;fontFamily=Times New Roman;strokeWidth=2;movable=0;resizable=0;rotatable=0;deletable=0;editable=0;locked=1;connectable=0;" vertex="1" parent="EPtruhl0A_hH3fAsd42Y-12">
          <mxGeometry width="190" height="460" as="geometry" />
        </mxCell>
        <mxCell id="EPtruhl0A_hH3fAsd42Y-7" value="&lt;b style=&quot;font-family: &amp;quot;Times New Roman&amp;quot;; line-height: 100%;&quot;&gt;Program staff&lt;/b&gt;&lt;br style=&quot;font-family: &amp;quot;Times New Roman&amp;quot;;&quot;&gt;&lt;ul style=&quot;font-family: &amp;quot;Times New Roman&amp;quot;; padding-left: 13px; line-height: 100%; margin-top: 5px; margin-left: 0px;&quot;&gt;&lt;li&gt;UA faculty mentors in measurement&lt;/li&gt;&lt;li&gt;UA graduate student facilitator&lt;/li&gt;&lt;/ul&gt;&lt;span style=&quot;font-family: &amp;quot;Times New Roman&amp;quot;; line-height: 100%;&quot;&gt;&lt;b&gt;Departmental support&lt;/b&gt;&lt;/span&gt;&lt;br style=&quot;font-family: &amp;quot;Times New Roman&amp;quot;;&quot;&gt;&lt;ul style=&quot;padding-left: 13px; margin-top: 5px;&quot;&gt;&lt;li&gt;&lt;span style=&quot;font-family: &amp;quot;Times New Roman&amp;quot;; line-height: 100%;&quot;&gt;Statistical software support on the virtual server&lt;/span&gt;&lt;/li&gt;&lt;li&gt;&lt;span style=&quot;font-family: &amp;quot;Times New Roman&amp;quot;; line-height: 100%;&quot;&gt;Instructional technology support&lt;/span&gt;&lt;/li&gt;&lt;/ul&gt;&lt;span style=&quot;font-family: &amp;quot;Times New Roman&amp;quot;; line-height: 100%;&quot;&gt;&lt;b&gt;STEM expertise&lt;/b&gt;&lt;/span&gt;&lt;br style=&quot;font-family: &amp;quot;Times New Roman&amp;quot;;&quot;&gt;&lt;ul style=&quot;padding-left: 13px; margin-top: 5px;&quot;&gt;&lt;li&gt;&lt;span style=&quot;font-family: &amp;quot;Times New Roman&amp;quot;; line-height: 100%;&quot;&gt;UA College of Education faculty&lt;/span&gt;&lt;/li&gt;&lt;li&gt;&lt;span style=&quot;font-family: &amp;quot;Times New Roman&amp;quot;; line-height: 100%;&quot;&gt;Faculty from participantsâ€™ home department&lt;/span&gt;&lt;/li&gt;&lt;/ul&gt;&lt;span style=&quot;font-family: &amp;quot;Times New Roman&amp;quot;; line-height: 100%;&quot;&gt;&lt;b&gt;Workshop materials&lt;/b&gt;&lt;/span&gt;&lt;br style=&quot;font-family: &amp;quot;Times New Roman&amp;quot;;&quot;&gt;&lt;ul style=&quot;padding-left: 13px; margin-top: 5px; margin-right: 0px;&quot;&gt;&lt;li&gt;&lt;span style=&quot;font-family: &amp;quot;Times New Roman&amp;quot;; line-height: 100%;&quot;&gt;Training lecture materials&lt;/span&gt;&lt;/li&gt;&lt;li&gt;&lt;span style=&quot;font-family: &amp;quot;Times New Roman&amp;quot;; line-height: 100%;&quot;&gt;Hands-on data sets&lt;/span&gt;&lt;/li&gt;&lt;/ul&gt;&lt;span style=&quot;font-family: &amp;quot;Times New Roman&amp;quot;; line-height: 100%;&quot;&gt;&amp;nbsp;&lt;/span&gt;" style="text;html=1;align=left;verticalAlign=middle;whiteSpace=wrap;rounded=0;fontSize=15;movable=1;resizable=1;rotatable=1;deletable=1;editable=1;locked=0;connectable=1;" vertex="1" parent="EPtruhl0A_hH3fAsd42Y-12">
          <mxGeometry x="20" width="150" height="480" as="geometry" />
        </mxCell>
        <mxCell id="EPtruhl0A_hH3fAsd42Y-13" value="" style="group;fontFamily=Times New Roman;" vertex="1" connectable="0" parent="1">
          <mxGeometry x="480" y="90" width="190" height="480" as="geometry" />
        </mxCell>
        <mxCell id="EPtruhl0A_hH3fAsd42Y-14" value="" style="rounded=1;whiteSpace=wrap;html=1;labelPosition=center;verticalLabelPosition=middle;align=left;verticalAlign=middle;textDirection=ltr;spacing=1;fontFamily=Times New Roman;strokeWidth=2;movable=0;resizable=0;rotatable=0;deletable=0;editable=0;locked=1;connectable=0;" vertex="1" parent="EPtruhl0A_hH3fAsd42Y-13">
          <mxGeometry width="190" height="460" as="geometry" />
        </mxCell>
        <mxCell id="EPtruhl0A_hH3fAsd42Y-15" value="&lt;font style=&quot;font-size: 15px;&quot; face=&quot;Times New Roman&quot;&gt;&lt;span style=&quot;background-color: transparent; color: light-dark(rgb(0, 0, 0), rgb(255, 255, 255));&quot;&gt;&lt;b&gt;Mentors and graduate facilitators&lt;/b&gt;&lt;/span&gt;&lt;br&gt;&lt;/font&gt;&lt;ul style=&quot;padding-left: 13px; margin-top: 5px;&quot;&gt;&lt;li&gt;&lt;font style=&quot;font-size: 15px;&quot; face=&quot;Times New Roman&quot;&gt;Mentor meetings&lt;/font&gt;&lt;/li&gt;&lt;li&gt;&lt;font style=&quot;font-size: 15px;&quot; face=&quot;Times New Roman&quot;&gt;Office hours&lt;/font&gt;&lt;/li&gt;&lt;li&gt;&lt;font style=&quot;font-size: 15px;&quot; face=&quot;Times New Roman&quot;&gt;Assistance from GTAs&lt;/font&gt;&lt;/li&gt;&lt;li&gt;&lt;font style=&quot;font-size: 15px;&quot; face=&quot;Times New Roman&quot;&gt;Online meetings&lt;/font&gt;&lt;/li&gt;&lt;/ul&gt;&lt;span style=&quot;font-size: 15px; font-family: &amp;quot;Times New Roman&amp;quot;; background-color: transparent; color: light-dark(rgb(0, 0, 0), rgb(255, 255, 255));&quot;&gt;&lt;b&gt;Summer workshops&lt;/b&gt;&lt;/span&gt;&lt;br&gt;&lt;ul style=&quot;padding-left: 13px; margin-top: 5px;&quot;&gt;&lt;li&gt;&lt;font style=&quot;font-size: 15px;&quot; face=&quot;Times New Roman&quot;&gt;Three two-day instructional workshops&lt;/font&gt;&lt;/li&gt;&lt;li&gt;&lt;font style=&quot;font-size: 15px;&quot; face=&quot;Times New Roman&quot;&gt;Collaboration active learning&lt;/font&gt;&lt;/li&gt;&lt;li&gt;&lt;font style=&quot;font-size: 15px;&quot; face=&quot;Times New Roman&quot;&gt;Discussion among participants&lt;/font&gt;&lt;/li&gt;&lt;/ul&gt;&lt;b style=&quot;font-size: 15px; font-family: &amp;quot;Times New Roman&amp;quot;; background-color: transparent; color: light-dark(rgb(0, 0, 0), rgb(255, 255, 255));&quot;&gt;Peer networks&lt;/b&gt;&lt;br&gt;&lt;ul style=&quot;padding-left: 13px; margin-top: 5px;&quot;&gt;&lt;li&gt;&lt;font style=&quot;font-size: 15px;&quot; face=&quot;Times New Roman&quot;&gt;Social gathering at AERA&lt;/font&gt;&lt;/li&gt;&lt;li&gt;&lt;font style=&quot;font-size: 15px;&quot; face=&quot;Times New Roman&quot;&gt;Synchronous online discussion&lt;/font&gt;&lt;/li&gt;&lt;li&gt;&lt;font style=&quot;font-size: 15px;&quot; face=&quot;Times New Roman&quot;&gt;Presentation by previous cohort&lt;/font&gt;&lt;/li&gt;&lt;/ul&gt;" style="text;html=1;align=left;verticalAlign=middle;whiteSpace=wrap;rounded=0;movable=1;resizable=1;rotatable=1;deletable=1;editable=1;locked=0;connectable=1;" vertex="1" parent="EPtruhl0A_hH3fAsd42Y-13">
          <mxGeometry x="20" y="-8" width="150" height="480" as="geometry" />
        </mxCell>
        <mxCell id="EPtruhl0A_hH3fAsd42Y-19" value="" style="group" vertex="1" connectable="0" parent="1">
          <mxGeometry x="1140" y="90" width="190" height="480" as="geometry" />
        </mxCell>
        <mxCell id="EPtruhl0A_hH3fAsd42Y-20" value="" style="rounded=1;whiteSpace=wrap;html=1;labelPosition=center;verticalLabelPosition=middle;align=left;verticalAlign=middle;textDirection=ltr;spacing=1;fontFamily=Times New Roman;strokeWidth=2;movable=0;resizable=0;rotatable=0;deletable=0;editable=0;locked=1;connectable=0;" vertex="1" parent="EPtruhl0A_hH3fAsd42Y-19">
          <mxGeometry width="190" height="460" as="geometry" />
        </mxCell>
        <mxCell id="EPtruhl0A_hH3fAsd42Y-22" value="" style="group" vertex="1" connectable="0" parent="1">
          <mxGeometry x="700" y="87" width="190" height="480" as="geometry" />
        </mxCell>
        <mxCell id="EPtruhl0A_hH3fAsd42Y-23" value="" style="rounded=1;whiteSpace=wrap;html=1;labelPosition=center;verticalLabelPosition=middle;align=left;verticalAlign=middle;textDirection=ltr;spacing=1;fontFamily=Times New Roman;strokeWidth=2;movable=0;resizable=0;rotatable=0;deletable=0;editable=0;locked=1;connectable=0;" vertex="1" parent="EPtruhl0A_hH3fAsd42Y-22">
          <mxGeometry width="190" height="460" as="geometry" />
        </mxCell>
        <mxCell id="EPtruhl0A_hH3fAsd42Y-24" value="&lt;font face=&quot;Times New Roman&quot;&gt;&lt;span style=&quot;font-size: 15px; background-color: transparent; color: light-dark(rgb(0, 0, 0), rgb(255, 255, 255));&quot;&gt;&lt;b&gt;Participation in training&lt;/b&gt;&lt;/span&gt;&lt;br&gt;&lt;/font&gt;&lt;ul style=&quot;margin-top: 5px; padding-left: 13px;&quot;&gt;&lt;li&gt;&lt;font face=&quot;Times New Roman&quot; style=&quot;font-size: 15px;&quot;&gt;Workshop participation&lt;/font&gt;&lt;/li&gt;&lt;li&gt;&lt;font face=&quot;Times New Roman&quot; style=&quot;font-size: 15px;&quot;&gt;Survey form&lt;/font&gt;&lt;/li&gt;&lt;li&gt;&lt;font face=&quot;Times New Roman&quot; style=&quot;font-size: 15px;&quot;&gt;Self-evaluation&lt;/font&gt;&lt;/li&gt;&lt;li&gt;&lt;font face=&quot;Times New Roman&quot; style=&quot;font-size: 15px;&quot;&gt;1-on-1 feedback&lt;/font&gt;&lt;/li&gt;&lt;li&gt;&lt;font face=&quot;Times New Roman&quot; style=&quot;font-size: 15px;&quot;&gt;Bi-weekly meetings&lt;/font&gt;&lt;/li&gt;&lt;li&gt;&lt;font face=&quot;Times New Roman&quot; style=&quot;font-size: 15px;&quot;&gt;Office hours&lt;/font&gt;&lt;/li&gt;&lt;/ul&gt;&lt;span style=&quot;font-size: 15px; font-family: &amp;quot;Times New Roman&amp;quot;; background-color: transparent; color: light-dark(rgb(0, 0, 0), rgb(255, 255, 255));&quot;&gt;&lt;b&gt;Project completion&lt;/b&gt;&lt;/span&gt;&lt;br&gt;&lt;ul style=&quot;margin-top: 5px; padding-left: 13px;&quot;&gt;&lt;li&gt;&lt;font face=&quot;Times New Roman&quot; style=&quot;font-size: 15px;&quot;&gt;Number of projects completed&lt;/font&gt;&lt;/li&gt;&lt;li&gt;&lt;font face=&quot;Times New Roman&quot; style=&quot;font-size: 15px;&quot;&gt;Number of grants applied&lt;/font&gt;&lt;/li&gt;&lt;li&gt;&lt;font face=&quot;Times New Roman&quot; style=&quot;font-size: 15px;&quot;&gt;Number of papers and presentations using psychometrics&lt;/font&gt;&lt;/li&gt;&lt;/ul&gt;&lt;span style=&quot;font-size: 15px; font-family: &amp;quot;Times New Roman&amp;quot;; background-color: transparent; color: light-dark(rgb(0, 0, 0), rgb(255, 255, 255));&quot;&gt;&lt;b&gt;Usage of social networks&lt;/b&gt;&lt;/span&gt;&lt;br&gt;&lt;ul style=&quot;margin-top: 5px; padding-left: 13px;&quot;&gt;&lt;li&gt;&lt;font face=&quot;Times New Roman&quot; style=&quot;font-size: 15px;&quot;&gt;AERA reception participation&lt;/font&gt;&lt;/li&gt;&lt;/ul&gt;" style="text;html=1;align=left;verticalAlign=middle;whiteSpace=wrap;rounded=0;movable=1;resizable=1;rotatable=1;deletable=1;editable=1;locked=0;connectable=1;" vertex="1" parent="EPtruhl0A_hH3fAsd42Y-22">
          <mxGeometry x="20" y="-4" width="150" height="460" as="geometry" />
        </mxCell>
        <mxCell id="EPtruhl0A_hH3fAsd42Y-16" value="" style="group" vertex="1" connectable="0" parent="1">
          <mxGeometry x="920" y="90" width="190" height="480" as="geometry" />
        </mxCell>
        <mxCell id="EPtruhl0A_hH3fAsd42Y-17" value="" style="rounded=1;whiteSpace=wrap;html=1;labelPosition=center;verticalLabelPosition=middle;align=left;verticalAlign=middle;textDirection=ltr;spacing=1;fontFamily=Times New Roman;strokeWidth=2;movable=0;resizable=0;rotatable=0;deletable=0;editable=0;locked=1;connectable=0;" vertex="1" parent="EPtruhl0A_hH3fAsd42Y-16">
          <mxGeometry width="190" height="460" as="geometry" />
        </mxCell>
        <mxCell id="EPtruhl0A_hH3fAsd42Y-18" value="&lt;ul style=&quot;padding-left: 13px; margin-top: 5px; margin-bottom: 12px;&quot;&gt;&lt;li&gt;&lt;b&gt;Support&lt;/b&gt; scholars in applying psychometrics in their research through positive experience of workshops and mentoring&lt;/li&gt;&lt;li&gt;&lt;b&gt;Enhance&lt;/b&gt; scholarâ€™s capacity of conducting research in measurement and confidence in data analysis&lt;/li&gt;&lt;li&gt;&lt;b&gt;Develop&lt;/b&gt; a peer support system among the scholars&lt;/li&gt;&lt;li&gt;&lt;b&gt;Increase&lt;/b&gt; the scholarsâ€™ productivity in research projects and grant proposals&lt;/li&gt;&lt;/ul&gt;" style="text;html=1;align=left;verticalAlign=middle;whiteSpace=wrap;rounded=0;movable=1;resizable=1;rotatable=1;deletable=1;editable=1;locked=0;connectable=1;fontFamily=Times New Roman;fontSize=15;horizontal=1;spacingTop=0;spacing=2;" vertex="1" parent="EPtruhl0A_hH3fAsd42Y-16">
          <mxGeometry x="20" y="12" width="140" height="410" as="geometry" />
        </mxCell>
        <mxCell id="EPtruhl0A_hH3fAsd42Y-21" value="&lt;ul style=&quot;padding-left: 13px; margin-top: 5px;&quot;&gt;&lt;li&gt;&lt;font style=&quot;font-size: 15px;&quot; face=&quot;Times New Roman&quot;&gt;&lt;b&gt;Contribute&lt;/b&gt; to rigorous STEM research that uses measurement models&lt;/font&gt;&lt;/li&gt;&lt;li&gt;&lt;font style=&quot;font-size: 15px;&quot; face=&quot;Times New Roman&quot;&gt;&lt;b&gt;Establish&lt;/b&gt; an atmosphere to assist early career scholars&lt;/font&gt;&lt;/li&gt;&lt;li&gt;&lt;font style=&quot;font-size: 15px;&quot; face=&quot;Times New Roman&quot;&gt;&lt;b&gt;Extend and broaden&lt;/b&gt; the training of measurement to scholars who need to use measurement and psychometrics&lt;/font&gt;&lt;/li&gt;&lt;li&gt;&lt;font style=&quot;font-size: 15px;&quot; face=&quot;Times New Roman&quot;&gt;&lt;b&gt;Influence&lt;/b&gt; other institutes to provide similar workshops to advocate the application of quantitative methods&lt;/font&gt;&lt;/li&gt;&lt;/ul&gt;" style="text;html=1;align=left;verticalAlign=middle;whiteSpace=wrap;rounded=0;movable=1;resizable=1;rotatable=1;deletable=1;editable=1;locked=0;connectable=1;" vertex="1" parent="1">
          <mxGeometry x="1160" y="96" width="140" height="420" as="geometry" />
        </mxCell>
      </root>
    </mxGraphModel>
  </diagram>
</mxfile>
